<svg width="195" height="50" fill="none" xmlns="http://www.w3.org/2000/svg"><g clip-path="url(#clip0_496_108)"><path d="M58.99 15.733h-4.25v18.458h2.886v-6.935h1.364c2.886 0 4.302-1.608 4.302-4.562v-2.4c0-2.952-1.416-4.56-4.302-4.56zm0 2.637c.918 0 1.416.422 1.416 1.74v2.769c0 1.318-.498 1.74-1.416 1.74h-1.364V18.37h1.364zm14.737 15.82c-.288-.685-.315-1.344-.315-2.24v-2.848c0-1.925-.472-3.323-1.914-3.93 1.285-.606 1.888-1.845 1.888-3.743v-1.45c0-2.848-1.285-4.246-4.275-4.246h-4.355v18.458h2.886v-7.515h.996c1.312 0 1.89.633 1.89 2.347v2.9c0 1.503.104 1.793.261 2.268h2.938zm-4.695-15.82c1.023 0 1.469.58 1.469 1.898v1.82c0 1.476-.656 1.951-1.732 1.951h-1.127V18.37h1.39zm8.928 1.609c0-1.319.576-1.82 1.494-1.82.919 0 1.495.501 1.495 1.82v9.966c0 1.319-.576 1.82-1.495 1.82-.918 0-1.495-.501-1.495-1.82V19.98zm-2.886 9.782c0 2.953 1.548 4.64 4.38 4.64 2.833 0 4.38-1.687 4.38-4.64v-9.598c0-2.953-1.547-4.64-4.38-4.64-2.832 0-4.38 1.687-4.38 4.64v9.598zM88.595 18.37h4.748v-2.637H85.71v18.458h2.885v-7.62h3.725v-2.637h-3.725V18.37zm6.131 15.82h2.886V15.734h-2.886v18.458zm4.156-15.82h3.016v15.82h2.886V18.37h3.017v-2.637h-8.92v2.637zm16.413-2.637h-2.912l2.833 18.458h4.302l2.833-18.458h-2.65l-2.203 15.056-2.203-15.056zm11.026 4.246c0-1.319.577-1.82 1.495-1.82.918 0 1.495.501 1.495 1.82v9.966c0 1.319-.577 1.82-1.495 1.82-.918 0-1.495-.501-1.495-1.82V19.98zm-2.885 9.782c0 2.953 1.547 4.64 4.38 4.64s4.381-1.687 4.381-4.64v-9.598c0-2.953-1.548-4.64-4.381-4.64s-4.38 1.687-4.38 4.64v9.598zm10.504-14.028v14.054c0 2.953 1.47 4.64 4.302 4.64 2.833 0 4.302-1.687 4.302-4.64V15.733h-2.728v14.239c0 1.318-.577 1.793-1.495 1.793-.918 0-1.495-.475-1.495-1.793V15.733h-2.886zm16.222 11.576v2.636c0 1.319-.577 1.793-1.495 1.793-.918 0-1.495-.474-1.495-1.793V19.98c0-1.319.577-1.82 1.495-1.82.918 0 1.495.501 1.495 1.82v1.977h2.728v-1.793c0-2.953-1.469-4.64-4.301-4.64-2.833 0-4.302 1.687-4.302 4.64v9.598c0 2.953 1.469 4.64 4.302 4.64 2.832 0 4.301-1.687 4.301-4.64V27.31h-2.728zm7.364-1.029h3.279v7.91h2.937V15.734h-2.937v7.91h-3.279v-7.91h-2.885v18.458h2.885v-7.91zm11.194-7.91h4.984v-2.637h-7.869v18.458h7.869v-2.637h-4.984v-5.405h3.961v-2.637h-3.961V18.37zm15.742 15.82c-.288-.685-.314-1.344-.314-2.24v-2.848c0-1.925-.473-3.323-1.915-3.93 1.285-.606 1.888-1.845 1.888-3.743v-1.45c0-2.848-1.285-4.246-4.275-4.246h-4.354v18.458h2.885v-7.515h.997c1.311 0 1.889.633 1.889 2.347v2.9c0 1.503.104 1.793.262 2.268h2.937zm-4.695-15.82c1.023 0 1.469.58 1.469 1.898v1.82c0 1.476-.656 1.951-1.731 1.951h-1.128V18.37h1.39zm5.911 1.793c0 5.274 5.64 5.985 5.64 9.782 0 1.319-.578 1.793-1.495 1.793-.919 0-1.496-.474-1.496-1.793v-1.318H185.6v1.134c0 2.953 1.468 4.64 4.301 4.64s4.302-1.687 4.302-4.64c0-5.274-5.64-5.986-5.64-9.782 0-1.319.525-1.82 1.443-1.82s1.443.501 1.443 1.82v.764h2.728v-.58c0-2.953-1.443-4.64-4.249-4.64-2.807 0-4.25 1.687-4.25 4.64z" fill="#232D37"/><path d="M24.884 49.801c13.744 0 24.885-11.148 24.885-24.9C49.769 11.148 38.628 0 24.884 0 11.141 0 0 11.148 0 24.9c0 13.753 11.141 24.901 24.884 24.901z" fill="#FFC200"/><path d="M4.249 6.984c2.579 4.707 2.427 25.964 1.82 34.163 2.58 3.188 9.408 8.806 19.574 8.806 8.137 0 14.617-4.96 16.843-7.44.485-.729 1.062-28.848-2.428-42.513l-2.58 2.581-3.186-1.518-2.58 2.581-3.338-1.367-2.73 2.582-3.187-1.519-2.732 2.43-3.338-1.215-2.58 2.43L10.47 5.77 7.738 8.199l-3.49-1.215z" fill="#F6F6F6"/><path fill-rule="evenodd" clip-rule="evenodd" d="M42.424 17.875L6.312 22.099C6.069 16.17 5.508 10.477 4.4 6.984L7.738 8.2l2.732-2.43 3.338 1.215 2.58-2.429 3.337 1.215 2.732-2.43 3.186 1.519 2.731-2.582 3.338 1.367 2.58-2.581 3.186 1.518L40.058 0C41.265 4.339 42 11.046 42.424 17.875z" fill="#232D37"/><path d="M19.061 26.589c.076-.979.515-1.357 1.237-1.302.691.053 1.099.498 1.024 1.476l-.583 7.573c-.075.979-.547 1.355-1.237 1.302-.722-.056-1.099-.498-1.023-1.476l.582-7.573zm-2.768 7.246c-.175 2.272.89 3.624 3.056 3.79 2.166.168 3.425-1.005 3.6-3.277l.558-7.258c.175-2.272-.89-3.624-3.056-3.79-2.166-.168-3.425 1.005-3.6 3.277l-.558 7.258zm2.446 11.711l2.04.157 10.366-21.421-2.04-.157-10.366 21.421zm10.594-10.04c.076-.978.515-1.356 1.237-1.3.691.052 1.1.496 1.024 1.475l-.583 7.573c-.075.978-.546 1.355-1.237 1.302-.722-.056-1.099-.498-1.024-1.476l.583-7.573zm-2.768 7.247c-.175 2.272.89 3.624 3.056 3.79 2.166.168 3.425-1.005 3.6-3.277l.558-7.258c.175-2.272-.89-3.624-3.056-3.79-2.166-.168-3.424 1.005-3.6 3.277l-.558 7.258z" fill="#232D37"/></g><defs><clipPath id="clip0_496_108"><path fill="#fff" d="M0 0h194.203v50H0z"/></clipPath></defs></svg>