<svg width="195" height="50" viewBox="0 0 195 50" fill="none" xmlns="http://www.w3.org/2000/svg">
<g clip-path="url(#clip0_581_189)">
<path d="M58.9902 15.7334H54.7408V34.1906H57.626V27.256H58.9902C61.8755 27.256 63.292 25.6476 63.292 22.6944V20.2949C63.292 17.3418 61.8755 15.7334 58.9902 15.7334ZM58.9902 18.3701C59.9081 18.3701 60.4062 18.792 60.4062 20.1104V22.879C60.4062 24.1973 59.9081 24.6192 58.9902 24.6192H57.626V18.3701H58.9902Z" fill="white"/>
<path d="M73.727 34.1906C73.4386 33.5051 73.4123 32.8459 73.4123 31.9494V29.1017C73.4123 27.1769 72.9404 25.7794 71.4976 25.173C72.7828 24.5665 73.3859 23.3272 73.3859 21.4288V19.9786C73.3859 17.1309 72.1007 15.7334 69.1106 15.7334H64.7562V34.1906H67.6419V26.6759H68.6382C69.9498 26.6759 70.5271 27.3087 70.5271 29.0226V31.923C70.5271 33.426 70.632 33.716 70.7891 34.1906H73.727ZM69.032 18.3701C70.0547 18.3701 70.5007 18.9502 70.5007 20.2686V22.088C70.5007 23.5645 69.8449 24.0391 68.7695 24.0391H67.6419V18.3701H69.032Z" fill="white"/>
<path d="M77.9591 19.9786C77.9591 18.6602 78.5363 18.1592 79.4541 18.1592C80.3725 18.1592 80.9492 18.6602 80.9492 19.9786V29.9454C80.9492 31.2639 80.3725 31.7648 79.4541 31.7648C78.5363 31.7648 77.9591 31.2639 77.9591 29.9454V19.9786ZM75.0739 29.7609C75.0739 32.7141 76.6216 34.4016 79.4541 34.4016C82.2871 34.4016 83.8349 32.7141 83.8349 29.7609V20.1632C83.8349 17.21 82.2871 15.5225 79.4541 15.5225C76.6216 15.5225 75.0739 17.21 75.0739 20.1632V29.7609Z" fill="white"/>
<path d="M88.595 18.3701H93.3427V15.7334H85.7098V34.1906H88.595V26.5704H92.32V23.9337H88.595V18.3701Z" fill="white"/>
<path d="M94.7264 34.1906H97.6116V15.7334H94.7264V34.1906Z" fill="white"/>
<path d="M98.8819 18.3701H101.898V34.1906H104.784V18.3701H107.801V15.7334H98.8819V18.3701Z" fill="white"/>
<path d="M115.295 15.7334H112.383L115.216 34.1906H119.518L122.351 15.7334H119.701L117.498 30.7892L115.295 15.7334Z" fill="white"/>
<path d="M126.321 19.9786C126.321 18.6602 126.898 18.1592 127.816 18.1592C128.734 18.1592 129.311 18.6602 129.311 19.9786V29.9454C129.311 31.2639 128.734 31.7648 127.816 31.7648C126.898 31.7648 126.321 31.2639 126.321 29.9454V19.9786ZM123.436 29.7609C123.436 32.7141 124.983 34.4016 127.816 34.4016C130.649 34.4016 132.197 32.7141 132.197 29.7609V20.1632C132.197 17.21 130.649 15.5225 127.816 15.5225C124.983 15.5225 123.436 17.21 123.436 20.1632V29.7609Z" fill="white"/>
<path d="M133.94 15.7334V29.7872C133.94 32.7404 135.41 34.4279 138.242 34.4279C141.075 34.4279 142.544 32.7404 142.544 29.7872V15.7334H139.816V29.9718C139.816 31.2902 139.239 31.7648 138.321 31.7648C137.403 31.7648 136.826 31.2902 136.826 29.9718V15.7334H133.94Z" fill="white"/>
<path d="M150.162 27.3087V29.9454C150.162 31.2639 149.585 31.7384 148.667 31.7384C147.749 31.7384 147.172 31.2639 147.172 29.9454V19.9786C147.172 18.6602 147.749 18.1592 148.667 18.1592C149.585 18.1592 150.162 18.6602 150.162 19.9786V21.9561H152.89V20.1632C152.89 17.21 151.421 15.5225 148.589 15.5225C145.756 15.5225 144.287 17.21 144.287 20.1632V29.7609C144.287 32.7141 145.756 34.4016 148.589 34.4016C151.421 34.4016 152.89 32.7141 152.89 29.7609V27.3087H150.162Z" fill="white"/>
<path d="M157.526 26.2804H160.805V34.1906H163.742V15.7334H160.805V23.6436H157.526V15.7334H154.641V34.1906H157.526V26.2804Z" fill="white"/>
<path d="M168.72 18.3701H173.704V15.7334H165.835V34.1906H173.704V31.5539H168.72V26.1485H172.681V23.5118H168.72V18.3701Z" fill="white"/>
<path d="M184.462 34.1906C184.174 33.5051 184.148 32.8459 184.148 31.9494V29.1017C184.148 27.1769 183.675 25.7794 182.233 25.173C183.518 24.5665 184.121 23.3272 184.121 21.4288V19.9786C184.121 17.1309 182.836 15.7334 179.846 15.7334H175.492V34.1906H178.377V26.6759H179.374C180.685 26.6759 181.263 27.3087 181.263 29.0226V31.923C181.263 33.426 181.367 33.716 181.525 34.1906H184.462ZM179.767 18.3701C180.79 18.3701 181.236 18.9502 181.236 20.2686V22.088C181.236 23.5645 180.58 24.0391 179.505 24.0391H178.377V18.3701H179.767Z" fill="white"/>
<path d="M185.678 20.1632C185.678 25.4366 191.318 26.1485 191.318 29.9454C191.318 31.2639 190.74 31.7384 189.823 31.7384C188.904 31.7384 188.327 31.2639 188.327 29.9454V28.6271H185.6V29.7609C185.6 32.7141 187.068 34.4016 189.901 34.4016C192.734 34.4016 194.203 32.7141 194.203 29.7609C194.203 24.4874 188.563 23.7755 188.563 19.9786C188.563 18.6602 189.088 18.1592 190.006 18.1592C190.924 18.1592 191.449 18.6602 191.449 19.9786V20.7432H194.177V20.1632C194.177 17.21 192.734 15.5225 189.928 15.5225C187.121 15.5225 185.678 17.21 185.678 20.1632Z" fill="white"/>
<path d="M24.8844 49.801C38.6277 49.801 49.7688 38.6527 49.7688 24.9005C49.7688 11.1483 38.6277 0 24.8844 0C11.1411 0 0 11.1483 0 24.9005C0 38.6527 11.1411 49.801 24.8844 49.801Z" fill="#FFC200"/>
<path d="M4.24855 6.98428C6.82803 11.6911 6.67629 32.9476 6.06937 41.1466C8.64884 44.335 15.4769 49.9527 25.6431 49.9527C33.7797 49.9527 40.2602 44.993 42.4856 42.513C42.9712 41.7842 43.5478 13.6649 40.0579 0L37.4784 2.58115L34.2919 1.06283L31.7125 3.64398L28.3743 2.27748L25.6431 4.85863L22.4566 3.34031L19.7255 5.76965L16.3873 4.55497L13.8078 6.98428L10.4697 5.76965L7.73844 8.19896L4.24855 6.98428Z" fill="white"/>
<path fill-rule="evenodd" clip-rule="evenodd" d="M42.4236 17.8746L6.31165 22.0993C6.06852 16.1686 5.50833 10.4769 4.40028 6.98428L7.73844 8.19895L10.4697 5.76965L13.8078 6.98428L16.3873 4.55497L19.7255 5.76965L22.4567 3.34031L25.6431 4.85863L28.3743 2.27748L31.7124 3.64397L34.2919 1.06283L37.4784 2.58115L40.0578 0C41.2653 4.33888 42.0003 11.0459 42.4236 17.8746Z" fill="#232D37"/>
<path d="M19.0614 26.5888C19.1367 25.6105 19.5764 25.2317 20.2984 25.2874C20.9891 25.3406 21.397 25.7847 21.3218 26.7629L20.7389 34.3364C20.6636 35.3146 20.1925 35.691 19.5019 35.6377C18.7798 35.5821 18.4032 35.1404 18.4786 34.1622L19.0614 26.5888ZM16.2931 33.8351C16.1182 36.1071 17.1827 37.4589 19.3489 37.6258C21.5151 37.7927 22.7738 36.62 22.9486 34.3479L23.5072 27.09C23.6821 24.818 22.6176 23.4663 20.4514 23.2994C18.2853 23.1324 17.0265 24.3051 16.8517 26.5772L16.2931 33.8351ZM18.7393 45.5464L20.7799 45.7036L31.1446 24.282L29.1041 24.1248L18.7393 45.5464ZM29.3334 35.5066C29.4087 34.5283 29.8484 34.1495 30.5704 34.2052C31.2611 34.2584 31.6691 34.7025 31.5938 35.6807L31.0109 43.2542C30.9357 44.2324 30.4646 44.6088 29.7739 44.5555C29.0518 44.4999 28.6753 44.0582 28.7505 43.08L29.3334 35.5066ZM26.5651 42.7529C26.3903 45.0249 27.4547 46.3767 29.6209 46.5436C31.7871 46.7105 33.0458 45.5378 33.2207 43.2658L33.7792 36.0078C33.9541 33.7358 32.8896 32.3841 30.7235 32.2172C28.5572 32.0502 27.2985 33.223 27.1237 35.495L26.5651 42.7529Z" fill="#232D37"/>
</g>
<defs>
<clipPath id="clip0_581_189">
<rect width="194.203" height="50" fill="white"/>
</clipPath>
</defs>
</svg>
